<svg xmlns="http://www.w3.org/2000/svg" fill="#fff" height="24" viewBox="0 0 24 24"
    width="24" focusable="false" aria-hidden="true"
    style="pointer-events: none; display: inherit; width: 100%; height: 100%;">
    <path clip-rule="evenodd"
        d="M18.001 10a6.003 6.003 0 00-4.025-5.667 2 2 0 10-3.945-.002A6.003 6.003 0 006.001 10v3.988a.044.044 0 01-.006.022L3.91 17.485A1 1 0 004.767 19h14.468a1 1 0 00.857-1.515l-2.085-3.475a.044.044 0 01-.006-.022V10Zm-6 12a3.001 3.001 0 002.83-2H9.17A3.001 3.001 0 0012 22Z"
        fill-rule="evenodd"></path>
</svg>